<mxfile host="app.diagrams.net" modified="2023-10-01T06:52:56.173Z" agent="Mozilla/5.0 (Windows NT 10.0; Win64; x64) AppleWebKit/537.36 (KHTML, like Gecko) Chrome/117.0.0.0 Safari/537.36" etag="mFDobt1kIch75NYfElhq" version="22.0.0" type="device">
  <diagram id="R2lEEEUBdFMjLlhIrx00" name="Page-1">
    <mxGraphModel dx="988" dy="582" grid="1" gridSize="10" guides="1" tooltips="1" connect="1" arrows="1" fold="1" page="1" pageScale="1" pageWidth="850" pageHeight="1100" math="0" shadow="0" extFonts="Permanent Marker^https://fonts.googleapis.com/css?family=Permanent+Marker">
      <root>
        <mxCell id="0" />
        <mxCell id="1" parent="0" />
        <mxCell id="QbFRDrq9OHAnYULUhJMN-31" style="edgeStyle=orthogonalEdgeStyle;rounded=0;orthogonalLoop=1;jettySize=auto;html=1;exitX=0.5;exitY=1;exitDx=0;exitDy=0;entryX=0.5;entryY=0;entryDx=0;entryDy=0;endArrow=none;endFill=0;" parent="1" source="QbFRDrq9OHAnYULUhJMN-6" target="QbFRDrq9OHAnYULUhJMN-30" edge="1">
          <mxGeometry relative="1" as="geometry" />
        </mxCell>
        <mxCell id="QbFRDrq9OHAnYULUhJMN-61" value="1" style="edgeStyle=orthogonalEdgeStyle;rounded=0;orthogonalLoop=1;jettySize=auto;html=1;exitX=1;exitY=0.5;exitDx=0;exitDy=0;entryX=0;entryY=0.5;entryDx=0;entryDy=0;endArrow=none;endFill=0;" parent="1" source="QbFRDrq9OHAnYULUhJMN-6" target="QbFRDrq9OHAnYULUhJMN-60" edge="1">
          <mxGeometry relative="1" as="geometry" />
        </mxCell>
        <mxCell id="QbFRDrq9OHAnYULUhJMN-6" value="Customer" style="rounded=0;whiteSpace=wrap;html=1;" parent="1" vertex="1">
          <mxGeometry x="130" y="220" width="120" height="60" as="geometry" />
        </mxCell>
        <mxCell id="QbFRDrq9OHAnYULUhJMN-25" style="edgeStyle=orthogonalEdgeStyle;rounded=0;orthogonalLoop=1;jettySize=auto;html=1;exitX=1;exitY=0.5;exitDx=0;exitDy=0;entryX=0.25;entryY=0;entryDx=0;entryDy=0;endArrow=none;endFill=0;" parent="1" source="QbFRDrq9OHAnYULUhJMN-10" target="QbFRDrq9OHAnYULUhJMN-6" edge="1">
          <mxGeometry relative="1" as="geometry" />
        </mxCell>
        <mxCell id="QbFRDrq9OHAnYULUhJMN-10" value="Name" style="ellipse;whiteSpace=wrap;html=1;" parent="1" vertex="1">
          <mxGeometry x="10" y="160" width="80" height="50" as="geometry" />
        </mxCell>
        <mxCell id="QbFRDrq9OHAnYULUhJMN-20" style="edgeStyle=orthogonalEdgeStyle;rounded=0;orthogonalLoop=1;jettySize=auto;html=1;exitX=1;exitY=0.5;exitDx=0;exitDy=0;entryX=0.5;entryY=0;entryDx=0;entryDy=0;endArrow=none;endFill=0;" parent="1" source="QbFRDrq9OHAnYULUhJMN-13" target="QbFRDrq9OHAnYULUhJMN-6" edge="1">
          <mxGeometry relative="1" as="geometry">
            <mxPoint x="150" y="155" as="targetPoint" />
          </mxGeometry>
        </mxCell>
        <mxCell id="QbFRDrq9OHAnYULUhJMN-13" value="Street" style="ellipse;whiteSpace=wrap;html=1;" parent="1" vertex="1">
          <mxGeometry x="50" y="110" width="70" height="30" as="geometry" />
        </mxCell>
        <mxCell id="QbFRDrq9OHAnYULUhJMN-19" style="edgeStyle=orthogonalEdgeStyle;rounded=0;orthogonalLoop=1;jettySize=auto;html=1;exitX=1;exitY=1;exitDx=0;exitDy=0;entryX=0.75;entryY=0;entryDx=0;entryDy=0;endArrow=none;endFill=0;" parent="1" source="QbFRDrq9OHAnYULUhJMN-14" target="QbFRDrq9OHAnYULUhJMN-6" edge="1">
          <mxGeometry relative="1" as="geometry">
            <mxPoint x="161.7157287525381" y="137.32233047033628" as="targetPoint" />
            <Array as="points">
              <mxPoint x="180" y="96" />
              <mxPoint x="180" y="120" />
              <mxPoint x="210" y="120" />
              <mxPoint x="210" y="137" />
              <mxPoint x="220" y="137" />
            </Array>
          </mxGeometry>
        </mxCell>
        <mxCell id="QbFRDrq9OHAnYULUhJMN-14" value="City" style="ellipse;whiteSpace=wrap;html=1;" parent="1" vertex="1">
          <mxGeometry x="90" y="70" width="70" height="30" as="geometry" />
        </mxCell>
        <mxCell id="QbFRDrq9OHAnYULUhJMN-29" style="edgeStyle=orthogonalEdgeStyle;rounded=0;orthogonalLoop=1;jettySize=auto;html=1;exitX=0.5;exitY=0;exitDx=0;exitDy=0;entryX=0;entryY=0.75;entryDx=0;entryDy=0;endArrow=none;endFill=0;" parent="1" source="QbFRDrq9OHAnYULUhJMN-28" target="QbFRDrq9OHAnYULUhJMN-6" edge="1">
          <mxGeometry relative="1" as="geometry" />
        </mxCell>
        <mxCell id="QbFRDrq9OHAnYULUhJMN-28" value="Phone Number" style="ellipse;whiteSpace=wrap;html=1;" parent="1" vertex="1">
          <mxGeometry x="60" y="290" width="80" height="50" as="geometry" />
        </mxCell>
        <mxCell id="QbFRDrq9OHAnYULUhJMN-30" value="&lt;u&gt;TransactionId&lt;/u&gt;" style="ellipse;whiteSpace=wrap;html=1;" parent="1" vertex="1">
          <mxGeometry x="150" y="300" width="80" height="50" as="geometry" />
        </mxCell>
        <mxCell id="QbFRDrq9OHAnYULUhJMN-46" style="edgeStyle=orthogonalEdgeStyle;rounded=0;orthogonalLoop=1;jettySize=auto;html=1;exitX=0;exitY=0.25;exitDx=0;exitDy=0;entryX=1;entryY=1;entryDx=0;entryDy=0;endArrow=none;endFill=0;" parent="1" source="QbFRDrq9OHAnYULUhJMN-32" target="QbFRDrq9OHAnYULUhJMN-44" edge="1">
          <mxGeometry relative="1" as="geometry" />
        </mxCell>
        <mxCell id="QbFRDrq9OHAnYULUhJMN-47" style="edgeStyle=orthogonalEdgeStyle;rounded=0;orthogonalLoop=1;jettySize=auto;html=1;exitX=0;exitY=0;exitDx=0;exitDy=0;entryX=0.5;entryY=1;entryDx=0;entryDy=0;endArrow=none;endFill=0;" parent="1" source="QbFRDrq9OHAnYULUhJMN-32" target="QbFRDrq9OHAnYULUhJMN-43" edge="1">
          <mxGeometry relative="1" as="geometry" />
        </mxCell>
        <mxCell id="QbFRDrq9OHAnYULUhJMN-48" style="edgeStyle=orthogonalEdgeStyle;rounded=0;orthogonalLoop=1;jettySize=auto;html=1;exitX=0.25;exitY=0;exitDx=0;exitDy=0;entryX=1;entryY=1;entryDx=0;entryDy=0;endArrow=none;endFill=0;" parent="1" source="QbFRDrq9OHAnYULUhJMN-32" target="QbFRDrq9OHAnYULUhJMN-41" edge="1">
          <mxGeometry relative="1" as="geometry" />
        </mxCell>
        <mxCell id="QbFRDrq9OHAnYULUhJMN-50" style="edgeStyle=orthogonalEdgeStyle;rounded=0;orthogonalLoop=1;jettySize=auto;html=1;exitX=1;exitY=0;exitDx=0;exitDy=0;entryX=0.5;entryY=1;entryDx=0;entryDy=0;endArrow=none;endFill=0;" parent="1" source="QbFRDrq9OHAnYULUhJMN-32" target="QbFRDrq9OHAnYULUhJMN-34" edge="1">
          <mxGeometry relative="1" as="geometry">
            <Array as="points">
              <mxPoint x="710" y="215" />
              <mxPoint x="710" y="170" />
              <mxPoint x="720" y="170" />
            </Array>
          </mxGeometry>
        </mxCell>
        <mxCell id="QbFRDrq9OHAnYULUhJMN-32" value="Sale" style="rounded=0;whiteSpace=wrap;html=1;" parent="1" vertex="1">
          <mxGeometry x="570" y="215" width="120" height="60" as="geometry" />
        </mxCell>
        <mxCell id="QbFRDrq9OHAnYULUhJMN-55" style="edgeStyle=orthogonalEdgeStyle;rounded=0;orthogonalLoop=1;jettySize=auto;html=1;exitX=0.5;exitY=0;exitDx=0;exitDy=0;entryX=0.75;entryY=1;entryDx=0;entryDy=0;endArrow=none;endFill=0;" parent="1" source="QbFRDrq9OHAnYULUhJMN-33" target="QbFRDrq9OHAnYULUhJMN-32" edge="1">
          <mxGeometry relative="1" as="geometry" />
        </mxCell>
        <mxCell id="QbFRDrq9OHAnYULUhJMN-33" value="&lt;u&gt;TransactionId&lt;/u&gt;" style="ellipse;whiteSpace=wrap;html=1;" parent="1" vertex="1">
          <mxGeometry x="640" y="350" width="80" height="50" as="geometry" />
        </mxCell>
        <mxCell id="QbFRDrq9OHAnYULUhJMN-34" value="Associate Name" style="ellipse;whiteSpace=wrap;html=1;" parent="1" vertex="1">
          <mxGeometry x="680" y="90" width="80" height="50" as="geometry" />
        </mxCell>
        <mxCell id="QbFRDrq9OHAnYULUhJMN-52" style="edgeStyle=orthogonalEdgeStyle;rounded=0;orthogonalLoop=1;jettySize=auto;html=1;exitX=0;exitY=0.5;exitDx=0;exitDy=0;entryX=1;entryY=0.5;entryDx=0;entryDy=0;endArrow=none;endFill=0;" parent="1" source="QbFRDrq9OHAnYULUhJMN-36" target="QbFRDrq9OHAnYULUhJMN-32" edge="1">
          <mxGeometry relative="1" as="geometry" />
        </mxCell>
        <mxCell id="QbFRDrq9OHAnYULUhJMN-36" value="Buy" style="ellipse;whiteSpace=wrap;html=1;" parent="1" vertex="1">
          <mxGeometry x="730" y="210" width="80" height="50" as="geometry" />
        </mxCell>
        <mxCell id="QbFRDrq9OHAnYULUhJMN-53" style="edgeStyle=orthogonalEdgeStyle;rounded=0;orthogonalLoop=1;jettySize=auto;html=1;exitX=0;exitY=0.5;exitDx=0;exitDy=0;entryX=1;entryY=0.75;entryDx=0;entryDy=0;endArrow=none;endFill=0;" parent="1" source="QbFRDrq9OHAnYULUhJMN-37" target="QbFRDrq9OHAnYULUhJMN-32" edge="1">
          <mxGeometry relative="1" as="geometry" />
        </mxCell>
        <mxCell id="QbFRDrq9OHAnYULUhJMN-37" value="Trade" style="ellipse;whiteSpace=wrap;html=1;" parent="1" vertex="1">
          <mxGeometry x="750" y="270" width="80" height="50" as="geometry" />
        </mxCell>
        <mxCell id="QbFRDrq9OHAnYULUhJMN-54" style="edgeStyle=orthogonalEdgeStyle;rounded=0;orthogonalLoop=1;jettySize=auto;html=1;exitX=0;exitY=0;exitDx=0;exitDy=0;entryX=1;entryY=1;entryDx=0;entryDy=0;endArrow=none;endFill=0;" parent="1" source="QbFRDrq9OHAnYULUhJMN-38" target="QbFRDrq9OHAnYULUhJMN-32" edge="1">
          <mxGeometry relative="1" as="geometry" />
        </mxCell>
        <mxCell id="QbFRDrq9OHAnYULUhJMN-38" value="Selll" style="ellipse;whiteSpace=wrap;html=1;" parent="1" vertex="1">
          <mxGeometry x="720" y="330" width="80" height="50" as="geometry" />
        </mxCell>
        <mxCell id="QbFRDrq9OHAnYULUhJMN-39" value="Buy Price" style="ellipse;whiteSpace=wrap;html=1;" parent="1" vertex="1">
          <mxGeometry x="620" y="140" width="80" height="50" as="geometry" />
        </mxCell>
        <mxCell id="QbFRDrq9OHAnYULUhJMN-56" style="edgeStyle=orthogonalEdgeStyle;rounded=0;orthogonalLoop=1;jettySize=auto;html=1;exitX=0.5;exitY=0;exitDx=0;exitDy=0;entryX=0.5;entryY=1;entryDx=0;entryDy=0;endArrow=none;endFill=0;" parent="1" source="QbFRDrq9OHAnYULUhJMN-40" target="QbFRDrq9OHAnYULUhJMN-32" edge="1">
          <mxGeometry relative="1" as="geometry" />
        </mxCell>
        <mxCell id="QbFRDrq9OHAnYULUhJMN-40" value="Trade Value" style="ellipse;whiteSpace=wrap;html=1;" parent="1" vertex="1">
          <mxGeometry x="570" y="300" width="80" height="50" as="geometry" />
        </mxCell>
        <mxCell id="QbFRDrq9OHAnYULUhJMN-41" value="Sticker" style="ellipse;whiteSpace=wrap;html=1;" parent="1" vertex="1">
          <mxGeometry x="530" y="70" width="80" height="50" as="geometry" />
        </mxCell>
        <mxCell id="QbFRDrq9OHAnYULUhJMN-59" style="edgeStyle=orthogonalEdgeStyle;rounded=0;orthogonalLoop=1;jettySize=auto;html=1;exitX=1;exitY=0;exitDx=0;exitDy=0;entryX=0;entryY=1;entryDx=0;entryDy=0;endArrow=none;endFill=0;" parent="1" source="QbFRDrq9OHAnYULUhJMN-42" target="QbFRDrq9OHAnYULUhJMN-32" edge="1">
          <mxGeometry relative="1" as="geometry">
            <Array as="points">
              <mxPoint x="518" y="280" />
              <mxPoint x="570" y="280" />
            </Array>
          </mxGeometry>
        </mxCell>
        <mxCell id="QbFRDrq9OHAnYULUhJMN-42" value="Date" style="ellipse;whiteSpace=wrap;html=1;" parent="1" vertex="1">
          <mxGeometry x="450" y="340" width="80" height="50" as="geometry" />
        </mxCell>
        <mxCell id="QbFRDrq9OHAnYULUhJMN-43" value="Buy VIN" style="ellipse;whiteSpace=wrap;html=1;" parent="1" vertex="1">
          <mxGeometry x="510" y="130" width="80" height="50" as="geometry" />
        </mxCell>
        <mxCell id="QbFRDrq9OHAnYULUhJMN-44" value="Sale VIN" style="ellipse;whiteSpace=wrap;html=1;" parent="1" vertex="1">
          <mxGeometry x="450" y="175" width="80" height="50" as="geometry" />
        </mxCell>
        <mxCell id="QbFRDrq9OHAnYULUhJMN-58" style="edgeStyle=orthogonalEdgeStyle;rounded=0;orthogonalLoop=1;jettySize=auto;html=1;exitX=0;exitY=0;exitDx=0;exitDy=0;entryX=0.25;entryY=1;entryDx=0;entryDy=0;endArrow=none;endFill=0;" parent="1" source="QbFRDrq9OHAnYULUhJMN-45" target="QbFRDrq9OHAnYULUhJMN-32" edge="1">
          <mxGeometry relative="1" as="geometry">
            <Array as="points">
              <mxPoint x="552" y="290" />
              <mxPoint x="600" y="290" />
            </Array>
          </mxGeometry>
        </mxCell>
        <mxCell id="QbFRDrq9OHAnYULUhJMN-45" value="Notes" style="ellipse;whiteSpace=wrap;html=1;" parent="1" vertex="1">
          <mxGeometry x="540" y="370" width="80" height="50" as="geometry" />
        </mxCell>
        <mxCell id="QbFRDrq9OHAnYULUhJMN-49" style="edgeStyle=orthogonalEdgeStyle;rounded=0;orthogonalLoop=1;jettySize=auto;html=1;exitX=0.75;exitY=0;exitDx=0;exitDy=0;entryX=0.39;entryY=1.048;entryDx=0;entryDy=0;entryPerimeter=0;endArrow=none;endFill=0;" parent="1" source="QbFRDrq9OHAnYULUhJMN-32" target="QbFRDrq9OHAnYULUhJMN-39" edge="1">
          <mxGeometry relative="1" as="geometry" />
        </mxCell>
        <mxCell id="QbFRDrq9OHAnYULUhJMN-62" value="1" style="edgeStyle=orthogonalEdgeStyle;rounded=0;orthogonalLoop=1;jettySize=auto;html=1;exitX=1;exitY=0.5;exitDx=0;exitDy=0;endArrow=none;endFill=0;" parent="1" source="QbFRDrq9OHAnYULUhJMN-60" target="QbFRDrq9OHAnYULUhJMN-32" edge="1">
          <mxGeometry relative="1" as="geometry" />
        </mxCell>
        <mxCell id="QbFRDrq9OHAnYULUhJMN-60" value="Has" style="rhombus;whiteSpace=wrap;html=1;" parent="1" vertex="1">
          <mxGeometry x="340" y="220" width="80" height="80" as="geometry" />
        </mxCell>
        <mxCell id="o-kUBSOYvBA5BmBTyzHI-2" style="edgeStyle=orthogonalEdgeStyle;rounded=0;orthogonalLoop=1;jettySize=auto;html=1;exitX=0;exitY=1;exitDx=0;exitDy=0;endArrow=none;endFill=0;" parent="1" source="o-kUBSOYvBA5BmBTyzHI-1" target="QbFRDrq9OHAnYULUhJMN-32" edge="1">
          <mxGeometry relative="1" as="geometry">
            <Array as="points">
              <mxPoint x="610" y="103" />
              <mxPoint x="610" y="190" />
              <mxPoint x="630" y="190" />
            </Array>
          </mxGeometry>
        </mxCell>
        <mxCell id="o-kUBSOYvBA5BmBTyzHI-1" value="Sale Price" style="ellipse;whiteSpace=wrap;html=1;" parent="1" vertex="1">
          <mxGeometry x="610" y="60" width="80" height="50" as="geometry" />
        </mxCell>
      </root>
    </mxGraphModel>
  </diagram>
</mxfile>
